<svg xmlns="http://www.w3.org/2000/svg" width="643.67" height="165.03" viewBox="0 0 643.67 165.03">
  <title>アセット 1</title>
  <g>
    <path d="M59.27,164.53a.43.43,0,0,1-.65.36l-34.31-21C8.76,133.79,0,120.65,0,100.81V57.33A.42.42,0,0,1,.63,57L17,66.42a.58.58,0,0,1,.29.5v32.8c0,15.61,7.08,22.2,16.14,29.13L59,144.4a.59.59,0,0,1,.29.5Z" style="fill: #083"/>
    <path d="M58.56,129.52,41.27,119.15a.61.61,0,0,1-.28-.5V74.26a13,13,0,0,1,6.07-11l24.25-16a.3.3,0,0,0-.17-.56l-18.55.05a.43.43,0,0,1-.43-.43l0-11.44a.3.3,0,0,0-.48-.25L19.74,56.42a.56.56,0,0,1-.61,0l-15.79-9a.43.43,0,0,1,0-.73L68.78.14A.77.77,0,0,1,70,.77V30.71a.43.43,0,0,0,.43.43l55.83,0a.61.61,0,0,1,.34,1.11L64.43,74A12.69,12.69,0,0,0,59.1,84.78v44.43A.36.36,0,0,1,58.56,129.52Z" style="fill: #d7000f"/>
    <path d="M104.76,96.94l0,14.28a.42.42,0,0,0,.66.35l8.24-5.35a.32.32,0,0,1,.5.3c-1.75,15.79-21.74,25.34-25,26.81a.32.32,0,0,1-.45-.29V99.46a9.78,9.78,0,0,1,4.57-8.28L129.63,68a.58.58,0,0,0,.27-.49V47.88a.44.44,0,0,0-.66-.37L77,80.23a13,13,0,0,0-6.17,11.08v73.4a.32.32,0,0,0,.49.27l35.41-22c13.75-9.27,23.24-21.45,23.24-41.61V82a.43.43,0,0,0-.65-.36L105,96.57A.43.43,0,0,0,104.76,96.94Z"/>
    <g>
      <rect x="243.43" y="106.62" width="12.41" height="12.41"/>
      <path d="M288,62.09H275.6v45.16a11.62,11.62,0,0,0,3.4,8.37,11.43,11.43,0,0,0,8.37,3.4h34v-12.4H288Z"/>
      <path d="M337,107.25a11.63,11.63,0,0,0,3.41,8.37,11.39,11.39,0,0,0,8.36,3.4h34v-12.4H349.43V96.76h29.89V84.35H349.43V74.5h33.39V62.09H336.94Z"/>
      <path d="M437.4,62.09H403.28l.09,56.53v.4h12.4V101.57h21V119h12.4V73.86a11.36,11.36,0,0,0-3.48-8.27A11.18,11.18,0,0,0,437.4,62.09Zm-.64,12.41V89.16h-21V74.5Z"/>
      <path d="M468.38,107.25a11.64,11.64,0,0,0,3.4,8.37,11.41,11.41,0,0,0,8.37,3.4h22.26a11.49,11.49,0,0,0,8.27-3.4,11.27,11.27,0,0,0,3.5-8.37V84.35H490.64V96.76h11.13v9.86h-21V74.5h33.4V62.09H468.29Z"/>
      <path d="M643.67,74.5V62.09H597.79l.08,45.16a11.63,11.63,0,0,0,3.41,8.37,11.39,11.39,0,0,0,8.36,3.4h34v-12.4H610.28V96.76h29.89V84.35H610.28V74.5Z"/>
      <path d="M566.47,106.62h-21V62.09H533.08v45.16a11.65,11.65,0,0,0,3.41,8.37,11.41,11.41,0,0,0,8.36,3.4h22.26a11.4,11.4,0,0,0,8.37-3.41,11.6,11.6,0,0,0,3.4-8.36V62.09H566.47Z"/>
      <polygon points="212.61 62.09 195.44 84.47 178.28 62.09 165.89 62.09 165.89 119.02 178.47 119.02 178.47 82.08 195.44 101.66 212.42 82.08 212.42 119.02 225 119.02 225 62.09 212.61 62.09"/>
    </g>
  </g>
</svg>
